<svg xmlns="http://www.w3.org/2000/svg" xmlns:xlink="http://www.w3.org/1999/xlink" viewBox="0 0 318 426.12"><defs><style>.a{fill:none;}.b{fill:#754c24;}.c{fill:#3fa9f5;}.d{fill:#0071bc;}.e{fill:#1b87ce;}.f{fill:#2e3192;}.g,.i{fill:#fff;}.g{opacity:0.3;}.h{fill:#fbb03b;}.j{clip-path:url(#a);}.k{fill:#fa8a00;}</style><clipPath id="a" transform="translate(-801 -315.88)"><path class="a" d="M980,547s-1-58,7-65,16-6,29-6,37-4,42-16,18-83-52-101-130-5-139,22-4,82-4,82a55.48,55.48,0,0,0,35,13c21,0,38-3,40,13s0,58,0,58S962,566,980,547Z"/></clipPath></defs><polygon class="b" points="63.71 219.3 62.5 384.62 70.5 350.62 80.5 236.62 63.71 219.3"/><polygon class="b" points="95 267.12 95.57 372.62 106 364.12 111 264.12 95 267.12"/><path class="b" d="M1008,586c0,2,7,68,7,68l8-4V573Z" transform="translate(-801 -315.88)"/><polygon class="b" points="235 247.12 250 349.12 255 350.12 252.93 211.85 235 247.12"/><path class="c" d="M801,742s2-49,26-69,95-38,95-38l77,1s58,17,80,30,31,33,33,41,7,35,7,35Z" transform="translate(-801 -315.88)"/><path class="d" d="M117,283.12h84a0,0,0,0,1,0,0v32.46a41.54,41.54,0,0,1-41.54,41.54h-.91A41.54,41.54,0,0,1,117,315.58V283.12A0,0,0,0,1,117,283.12Z"/><ellipse class="e" cx="159" cy="149.12" rx="108" ry="149"/><path class="f" d="M931,569c5.58.48,10.55,1.1,15.45,1.57s9.58.82,14.24.91c2.34,0,4.66,0,7-.05s4.68-.23,7.07-.45c4.8-.41,9.64-1.27,15.25-2a26.33,26.33,0,0,1-5.76,6.06,33.47,33.47,0,0,1-7.24,4.27,39.25,39.25,0,0,1-16.54,3.15,43.17,43.17,0,0,1-16.27-3.59,40.22,40.22,0,0,1-7.19-4.1,32.38,32.38,0,0,1-3.21-2.64A21,21,0,0,1,931,569Z" transform="translate(-801 -315.88)"/><path class="d" d="M1056.5,487.5s-26,36-57,40c0,0,50-3,59-20Z" transform="translate(-801 -315.88)"/><path class="d" d="M1014,550s38-16,44-27l-8,20S1029,550,1014,550Z" transform="translate(-801 -315.88)"/><path class="d" d="M862.59,487.73s26,36,57,40c0,0-50-3-59-20Z" transform="translate(-801 -315.88)"/><path class="d" d="M869.09,543.23s21,7,36,7c0,0-38-16-44-27" transform="translate(-801 -315.88)"/><path class="d" d="M938,547s28,9,42,0C980,547,962,577,938,547Z" transform="translate(-801 -315.88)"/><path class="g" d="M980,547s-1-58,7-65,16-6,29-6,37-4,42-16,18-83-52-101-130-5-139,22-4,82-4,82a55.48,55.48,0,0,0,35,13c21,0,38-3,40,13s0,58,0,58S962,566,980,547Z" transform="translate(-801 -315.88)"/><path class="h" d="M981,488s22-23,42,0c0,0-4,21-21,20S981,488,981,488Z" transform="translate(-801 -315.88)"/><circle cx="202.5" cy="175.62" r="9.5"/><circle class="i" cx="200.5" cy="173.62" r="1.5"/><path class="h" d="M938,488s-22-23-42,0c0,0,4,21,21,20S938,488,938,488Z" transform="translate(-801 -315.88)"/><circle cx="114.5" cy="175.62" r="9.5"/><circle class="i" cx="116.5" cy="173.62" r="1.5"/><g class="j"><path class="i" d="M860.59,428.81a21.6,21.6,0,0,1,.78-5.73,28.61,28.61,0,0,1,2-5.3,26.7,26.7,0,0,1,3-4.91,15.39,15.39,0,0,1,4.47-4.15,14.57,14.57,0,0,1,1.37-.74c.44-.18.85-.37,1.29-.53l2.6-.95a27.4,27.4,0,0,0,4.91-2.24,24.67,24.67,0,0,0,7.57-7.31c1-1.45,1.91-2.95,2.81-4.35.46-.69.84-1.4,1.31-2.05s.83-1.33,1.13-2l.48-1c.13-.32.23-.65.35-1l.47-1.18c.19-.48.39-1,.6-1.43a29.85,29.85,0,0,1,2.93-5,48.2,48.2,0,0,1,7.62-8.12,40.72,40.72,0,0,1,9.4-6.16l.66.62a69.65,69.65,0,0,1-4.54,10c-1.66,3.13-3.42,6.12-5.14,9-.88,1.42-1.74,2.78-2.6,4.1l-1.31,2.16c-.28.48-.57,1-.88,1.41l-1,1.27c-.64.85-1.34,1.56-2,2.32a29,29,0,0,1-2.21,2,25.28,25.28,0,0,1-2.38,1.65c-.8.52-1.63,1-2.46,1.44a50,50,0,0,0-9.13,6,33.78,33.78,0,0,0-3.78,4l-1.78,2.11c-.29.35-.59.68-.89,1s-.47.61-.73.88c-.92,1.13-1.93,2.25-3,3.42l-3.33,3.67a67.39,67.39,0,0,1-7.77,7.53Z" transform="translate(-801 -315.88)"/><path class="i" d="M933.9,366.71a47.84,47.84,0,0,1-1.84,7.64,74.09,74.09,0,0,1-2.73,7.2q-1.53,3.52-3.37,6.89a42.14,42.14,0,0,1-4.15,6.45c-3.18,4.07-7.16,7.58-10.39,11.55-.81,1-1.65,2-2.41,3s-1.62,2-2.39,3.07a56.79,56.79,0,0,0-4.22,6.27l-1.9,3.28c-.61,1.1-1.24,2.19-1.88,3.26s-1.27,2.15-2,3.19l-1.95,3.15c-2.57,4.24-4.91,8.54-7.44,12.69s-5,8.31-7.26,12.58A93.76,93.76,0,0,0,874,470.51l-.9,0c-.29-1.29-.5-2.62-.7-4s-.1-2.67-.1-4a43.42,43.42,0,0,1,1.08-8,62.07,62.07,0,0,1,5.57-14.88,82,82,0,0,1,8.87-12.88c.83-1,1.64-2,2.49-3s1.73-1.92,2.63-2.86c1.82-1.84,3.77-3.58,5.73-5.27s3.93-3.37,5.77-5.16c.85-.88,1.72-1.75,2.5-2.72a36.18,36.18,0,0,0,2.18-3c2.74-4.2,4.23-9.21,6.34-13.76a54.6,54.6,0,0,1,3.64-6.57c1.32-2.12,2.71-4.22,4.17-6.28a81.36,81.36,0,0,1,9.88-11.83Z" transform="translate(-801 -315.88)"/><path class="i" d="M956.64,371.06a27.62,27.62,0,0,1-.31,6.58,40.37,40.37,0,0,1-1.52,6.27,44.31,44.31,0,0,1-2.4,5.95,25.85,25.85,0,0,1-3.41,5.46c-2.76,3.37-6.39,6-9.32,9a30.16,30.16,0,0,0-6.42,10.35l-1.11,2.88c-.34,1-.69,1.93-1.07,2.86s-.74,1.89-1.15,2.8-.83,1.83-1.18,2.76c-1.56,3.7-2.81,7.46-4.39,11.06s-3.08,7.2-4.55,10.85A87.06,87.06,0,0,0,916,459.44l-.9.12c-.46-1-.86-2.05-1.24-3.13s-.5-2.17-.7-3.29-.22-2.21-.3-3.34,0-2.21,0-3.33a27.9,27.9,0,0,1,.3-3.3,32.39,32.39,0,0,1,.54-3.25c.22-1.07.46-2.13.74-3.19s.64-2.07,1-3.11a57.31,57.31,0,0,1,5.8-11.52,54.55,54.55,0,0,1,3.63-5.3c.67-.84,1.38-1.65,2.09-2.46s1.49-1.56,2.23-2.34a81.18,81.18,0,0,0,8.33-9.54c2.44-3.26,3.56-7.41,5.13-11.07a42.68,42.68,0,0,1,2.74-5.29c1-1.72,2-3.43,3.11-5.14a83.89,83.89,0,0,1,7.33-10.17Z" transform="translate(-801 -315.88)"/><path class="i" d="M959.45,370.93a62.89,62.89,0,0,1,1.93,8.35c.48,2.79.82,5.57,1.06,8.36s.41,5.56.47,8.35a58.14,58.14,0,0,1-.28,8.34c-.6,5.57-2.08,11.13-2.37,16.69a80.75,80.75,0,0,0,1,16.7c.4,2.79.84,5.57,1.13,8.36s.44,5.56.6,8.35c.32,5.56.66,11.13.49,16.69s-.61,11.13-1.31,16.7A116.59,116.59,0,0,1,959,504.5h-.9a116.5,116.5,0,0,1-3-16.71q-1-8.35-1.19-16.7c-.13-5.57.25-11.13.61-16.7.19-2.78.34-5.56.67-8.34s.76-5.56,1.19-8.35A80,80,0,0,0,957.36,421c-.24-5.57-1.68-11.14-2.24-16.7a58.28,58.28,0,0,1-.22-8.35q.12-4.18.53-8.35c.27-2.78.63-5.56,1.13-8.34a62.68,62.68,0,0,1,2-8.34Z" transform="translate(-801 -315.88)"/><path class="i" d="M964.15,370.87a52.53,52.53,0,0,1,3.6,5.12c1.1,1.72,2.07,3.45,3,5.17l1.4,2.58,1.33,2.58c.42.87.89,1.71,1.26,2.59.2.44.38.89.56,1.33s.36.89.53,1.34c1.31,3.6,2.19,7.66,4.61,10.73.3.38.59.77.92,1.13s.68.78,1,1.15.72.75,1.09,1.11l1.07,1.12c1.45,1.48,2.94,2.93,4.48,4.37a60.18,60.18,0,0,1,4.35,4.55,56.18,56.18,0,0,1,3.72,5,67.59,67.59,0,0,1,6.23,10.69,61.68,61.68,0,0,1,3.84,11.85,43.52,43.52,0,0,1,.91,6.29,23,23,0,0,1-.37,6.5l-.89.1c-2.09-3.62-4.25-6.89-6.28-10.31s-4-6.78-5.86-10.24-3.36-7.08-5-10.68c-.85-1.77-1.68-3.55-2.47-5.36L985,414a31.77,31.77,0,0,0-2.78-5.26,16.31,16.31,0,0,0-1.81-2.31c-.32-.37-.65-.71-1-1.07s-.74-.74-1.12-1.1c-3-2.9-6.5-5.64-9.05-9.09a19.81,19.81,0,0,1-1.71-2.67,21.81,21.81,0,0,1-1.33-2.86,40.3,40.3,0,0,1-2-5.95,33.57,33.57,0,0,1-1-12.6Z" transform="translate(-801 -315.88)"/><path class="i" d="M985.92,370.75c3.56,3.73,6.53,7.58,9.53,11.27,1.47,1.86,3,3.64,4.44,5.38l4.39,5c.37.36.72.77,1.08,1.16s1.1,1.06,1.49,1.59a33.54,33.54,0,0,1,2.36,3.28c1.41,2.2,2.71,4.35,4.14,6.38a92.23,92.23,0,0,0,9.67,11.38c1.75,1.81,3.49,3.64,5.1,5.57s3.07,4,4.51,6a91.51,91.51,0,0,1,7.89,12.84,71.23,71.23,0,0,1,5.19,14.36,44,44,0,0,1,1.17,7.73,20.11,20.11,0,0,1-.88,7.88l-.9-.06a38.43,38.43,0,0,0-2.71-6.71c-1.06-2.13-2.16-4.23-3.33-6.31L1032,445c-2.34-4.18-4.41-8.54-6.63-12.85-1.1-2.16-2.27-4.29-3.32-6.5s-2-4.47-3.08-6.71a46.94,46.94,0,0,0-7.87-12.35,32.87,32.87,0,0,0-5.49-4.79,29,29,0,0,0-2.92-1.86c-.51-.3-.82-.39-1.39-.71s-1.23-.72-1.83-1.11a24.48,24.48,0,0,1-5.8-5.68,42.18,42.18,0,0,1-4.12-6.63,46.22,46.22,0,0,1-2.9-7.12,34,34,0,0,1-1.54-7.58Z" transform="translate(-801 -315.88)"/><path class="i" d="M1007.69,369.56a31.88,31.88,0,0,1,7.53,5.76c1.07,1.06,2.06,2.16,3,3.29a18.25,18.25,0,0,1,2.49,3.65c1.36,2.63,2.18,5.82,4.1,8.08a10.82,10.82,0,0,0,3.32,2.7,5.5,5.5,0,0,0,1.84.6l.23,0,.36.09.73.18c.43.14.92.28,1.33.46a23.08,23.08,0,0,1,4.64,2.41A30.26,30.26,0,0,1,1041,400a41.31,41.31,0,0,1,6.25,7.08,44.32,44.32,0,0,1,4.24,8.32,33.82,33.82,0,0,1,2.29,9.39l-.77.46a45.11,45.11,0,0,1-7.45-5.92,70.84,70.84,0,0,1-6.09-6.59c-1.85-2.28-3.33-4.81-4.93-7.21-.8-1.19-1.64-2.34-2.39-3.54s-1.47-2.41-2.27-3.44c-.21-.27-.4-.47-.61-.72l-.31-.29-.16-.15-.29-.19-.59-.39-.52-.41c-.37-.25-.66-.55-1-.81-1.27-1.07-2.39-2.15-3.62-3.12-2.42-2-5.54-3.39-8-5.47a16.26,16.26,0,0,1-3.05-3.54,32.44,32.44,0,0,1-2.31-4.06,28.18,28.18,0,0,1-1.71-4.41,20.56,20.56,0,0,1-.86-4.9Z" transform="translate(-801 -315.88)"/></g><path d="M981,466s1-9,13-10,45,3,45,3-27,7-34,7Z" transform="translate(-801 -315.88)"/><path d="M936.09,465s-1-9-13-10-45,3-45,3,27,7,34,7Z" transform="translate(-801 -315.88)"/><path class="c" d="M1077.5,423.5s24-13,31-11c0,0-2,15-2,21s-9,20-14,26-5,14-9,18-7,7-10,7S1077.5,423.5,1077.5,423.5Z" transform="translate(-801 -315.88)"/><path class="c" d="M841.34,422.79s-24-13-31-11c0,0,2,15,2,21s9,20,14,26,5,14,9,18,7,7,10,7S841.34,422.79,841.34,422.79Z" transform="translate(-801 -315.88)"/><path class="b" d="M852,580s14-98,13-122-6-85,31-87,49,0,66,0,52-5,72,4,21,68,21,81,11,124,11,124,15-123,11-156-13-96-105-107-127,62-128,92S852,580,852,580Z" transform="translate(-801 -315.88)"/><path class="i" d="M944,418.59a1.5,1.5,0,0,0,0-3,1.5,1.5,0,0,0,0,3Z" transform="translate(-801 -315.88)"/><path class="i" d="M944.66,450.24a1.5,1.5,0,0,0,0-3,1.5,1.5,0,0,0,0,3Z" transform="translate(-801 -315.88)"/><path class="i" d="M943,482.93a1.5,1.5,0,0,0,0-3,1.5,1.5,0,0,0,0,3Z" transform="translate(-801 -315.88)"/><path class="i" d="M976.32,483.27a1.5,1.5,0,0,0,0-3,1.5,1.5,0,0,0,0,3Z" transform="translate(-801 -315.88)"/><path class="i" d="M975.64,452.29a1.5,1.5,0,0,0,0-3,1.5,1.5,0,0,0,0,3Z" transform="translate(-801 -315.88)"/><path class="i" d="M975.64,418.59a1.5,1.5,0,0,0,0-3,1.5,1.5,0,0,0,0,3Z" transform="translate(-801 -315.88)"/><path class="i" d="M986.19,386.59a1.5,1.5,0,0,0,0-3,1.5,1.5,0,0,0,0,3Z" transform="translate(-801 -315.88)"/><path class="i" d="M1008.66,419.61a1.5,1.5,0,0,0,0-3,1.5,1.5,0,0,0,0,3Z" transform="translate(-801 -315.88)"/><path class="i" d="M1018.19,452.29a1.5,1.5,0,0,0,0-3,1.5,1.5,0,0,0,0,3Z" transform="translate(-801 -315.88)"/><path class="i" d="M1041,427.78a1.5,1.5,0,0,0,0-3,1.5,1.5,0,0,0,0,3Z" transform="translate(-801 -315.88)"/><path class="i" d="M1030.11,408a1.5,1.5,0,0,0,0-3,1.5,1.5,0,0,0,0,3Z" transform="translate(-801 -315.88)"/><path class="i" d="M901.09,451.27a1.5,1.5,0,0,0,0-3,1.5,1.5,0,0,0,0,3Z" transform="translate(-801 -315.88)"/><path class="i" d="M912.32,418.93a1.5,1.5,0,0,0,0-3,1.5,1.5,0,0,0,0,3Z" transform="translate(-801 -315.88)"/><path class="i" d="M935.13,386.24a1.5,1.5,0,0,0,0-3,1.5,1.5,0,0,0,0,3Z" transform="translate(-801 -315.88)"/><path class="i" d="M891.21,408a1.5,1.5,0,0,0,0-3,1.5,1.5,0,0,0,0,3Z" transform="translate(-801 -315.88)"/><path class="i" d="M878.62,430.5a1.5,1.5,0,0,0,0-3,1.5,1.5,0,0,0,0,3Z" transform="translate(-801 -315.88)"/><path class="i" d="M878.62,484a1.5,1.5,0,0,0,0-3,1.5,1.5,0,0,0,0,3Z" transform="translate(-801 -315.88)"/><path class="i" d="M890.53,504a1.5,1.5,0,0,0,0-3,1.5,1.5,0,0,0,0,3Z" transform="translate(-801 -315.88)"/><path class="i" d="M933.43,515.27a1.5,1.5,0,0,0,0-3,1.5,1.5,0,0,0,0,3Z" transform="translate(-801 -315.88)"/><path class="i" d="M986.87,515.61a1.5,1.5,0,0,0,0-3,1.5,1.5,0,0,0,0,3Z" transform="translate(-801 -315.88)"/><path class="i" d="M1030.45,504.37a1.5,1.5,0,0,0,0-3,1.5,1.5,0,0,0,0,3Z" transform="translate(-801 -315.88)"/><path class="i" d="M1039,483.27a1.5,1.5,0,0,0,0-3,1.5,1.5,0,0,0,0,3Z" transform="translate(-801 -315.88)"/><path class="d" d="M1075,426s21-14,33-14c0,0-36,39-37,53S1075,426,1075,426Z" transform="translate(-801 -315.88)"/><path class="d" d="M843,425.29s-21-14-33-14c0,0,36,39,37,53S843,425.29,843,425.29Z" transform="translate(-801 -315.88)"/><path class="d" d="M885,648s20,50,56,56c0,0-49,2-72-52Z" transform="translate(-801 -315.88)"/><path class="d" d="M844,665s-2,31,87,62c0,0-79-1-101-56Z" transform="translate(-801 -315.88)"/><path class="d" d="M1034.59,647.52s-20,50-56,56c0,0,49,2,72-52Z" transform="translate(-801 -315.88)"/><path class="d" d="M1075.59,664.52s2,31-87,62c0,0,79-1,101-56Z" transform="translate(-801 -315.88)"/><path class="d" d="M1008.32,632.57" transform="translate(-801 -315.88)"/><path class="d" d="M1008.32,634.07a1.5,1.5,0,0,0,0-3,1.5,1.5,0,0,0,0,3Z" transform="translate(-801 -315.88)"/><path class="k" d="M1008,631.55" transform="translate(-801 -315.88)"/><path class="k" d="M1008,636.55c6.43,0,6.44-10,0-10s-6.45,10,0,10Z" transform="translate(-801 -315.88)"/><path class="k" d="M1004.57,642.45" transform="translate(-801 -315.88)"/><path class="k" d="M1004.57,647.45c6.44,0,6.45-10,0-10s-6.44,10,0,10Z" transform="translate(-801 -315.88)"/><path class="k" d="M998.79,651" transform="translate(-801 -315.88)"/><path class="k" d="M998.79,656c6.43,0,6.44-10,0-10s-6.45,10,0,10Z" transform="translate(-801 -315.88)"/><path class="k" d="M992,659.13" transform="translate(-801 -315.88)"/><path class="k" d="M992,664.13c6.43,0,6.44-10,0-10s-6.45,10,0,10Z" transform="translate(-801 -315.88)"/><path class="k" d="M984.15,667" transform="translate(-801 -315.88)"/><path class="k" d="M984.15,672c6.43,0,6.44-10,0-10s-6.45,10,0,10Z" transform="translate(-801 -315.88)"/><path class="k" d="M974.62,671.38" transform="translate(-801 -315.88)"/><path class="k" d="M974.62,676.38c6.43,0,6.44-10,0-10s-6.45,10,0,10Z" transform="translate(-801 -315.88)"/><path class="k" d="M964.74,673.09" transform="translate(-801 -315.88)"/><path class="k" d="M964.74,678.09c6.44,0,6.45-10,0-10s-6.44,10,0,10Z" transform="translate(-801 -315.88)"/><path class="k" d="M954.19,673.09" transform="translate(-801 -315.88)"/><path class="k" d="M954.19,678.09c6.44,0,6.45-10,0-10s-6.44,10,0,10Z" transform="translate(-801 -315.88)"/><path class="k" d="M944.66,671.38" transform="translate(-801 -315.88)"/><path class="k" d="M944.66,676.38c6.43,0,6.44-10,0-10s-6.45,10,0,10Z" transform="translate(-801 -315.88)"/><path class="k" d="M934.79,666.28" transform="translate(-801 -315.88)"/><path class="k" d="M934.79,671.28c6.43,0,6.44-10,0-10s-6.45,10,0,10Z" transform="translate(-801 -315.88)"/><path class="k" d="M927.3,659.13" transform="translate(-801 -315.88)"/><path class="k" d="M927.3,664.13c6.43,0,6.44-10,0-10s-6.45,10,0,10Z" transform="translate(-801 -315.88)"/><path class="k" d="M921.51,649.94" transform="translate(-801 -315.88)"/><path class="k" d="M921.51,654.94c6.44,0,6.45-10,0-10s-6.44,10,0,10Z" transform="translate(-801 -315.88)"/><path class="k" d="M916.06,640.4" transform="translate(-801 -315.88)"/><path class="k" d="M916.06,645.4c6.44,0,6.45-10,0-10s-6.44,10,0,10Z" transform="translate(-801 -315.88)"/><path class="k" d="M912.66,630.53" transform="translate(-801 -315.88)"/><path class="k" d="M912.66,635.53c6.43,0,6.44-10,0-10s-6.45,10,0,10Z" transform="translate(-801 -315.88)"/></svg>