<?xml version="1.0" encoding="UTF-8"?> <svg xmlns="http://www.w3.org/2000/svg" id="Слой_1" data-name="Слой 1" viewBox="0 0 308.88 357.69"><defs><style>.cls-1,.cls-2,.cls-3{stroke:#fff;}.cls-1,.cls-2,.cls-3,.cls-4{stroke-miterlimit:10;}.cls-1{stroke-width:5px;}.cls-2{stroke-width:10px;}.cls-3{stroke-width:14px;}.cls-4,.cls-5{fill:#fff;}.cls-4{stroke:#000;stroke-width:16px;}</style></defs><path d="M802.93,483.23l46.8,67.13-31.66,33.33s-45.28-30.16-49.08-74Z" transform="translate(-768.99 -226)"></path><path class="cls-1" d="M831.59,474.24,804,495s5,37,36,52l24.39-18.33Z" transform="translate(-768.99 -226)"></path><path d="M1043.92,483.17l-46.8,67.14,31.65,33.33s45.28-30.17,49.09-74.05Z" transform="translate(-768.99 -226)"></path><path class="cls-1" d="M1014.21,471.07l27.59,20.76s-5,37-36,52L981.41,525.5Z" transform="translate(-768.99 -226)"></path><path class="cls-2" d="M920,231s-100,2-100,99,5,139,22,169,60,60,78,61,79.5-42.5,87.5-67.5S1025,393,1020,335,982,231,920,231Z" transform="translate(-768.99 -226)"></path><circle class="cls-3" cx="152.01" cy="268" r="60"></circle><path class="cls-4" d="M896,316s-76-27-96,17,11,92,31,86,71-34,74-65S896,316,896,316Z" transform="translate(-768.99 -226)"></path><path class="cls-4" d="M945.77,320.15s76-27,96,17-11,92-31,86-71-34-74-65S945.77,320.15,945.77,320.15Z" transform="translate(-768.99 -226)"></path><circle class="cls-5" cx="123.01" cy="264" r="11"></circle><circle class="cls-5" cx="151.01" cy="241" r="11"></circle><circle class="cls-5" cx="178.01" cy="264" r="11"></circle><circle class="cls-5" cx="167.01" cy="294" r="11"></circle><circle class="cls-5" cx="138.01" cy="294" r="11"></circle></svg> 