<?xml version="1.0" encoding="UTF-8"?> <svg xmlns="http://www.w3.org/2000/svg" id="Слой_1" data-name="Слой 1" viewBox="0 0 789 686.5"><defs><style>.cls-1,.cls-2{fill:#fff;}.cls-1{stroke:#000;stroke-miterlimit:10;stroke-width:3px;}.cls-3{fill:#ed1c24;}</style></defs><circle cx="390" cy="407" r="269"></circle><circle cx="651" cy="138" r="138"></circle><circle cx="138" cy="138" r="138"></circle><path class="cls-1" d="M709.85,645.29S580,599,563,659,666.5,856.5,832,857s258-119,275-209c1.5-65.5-165-1-165-1Z" transform="translate(-442 -172)"></path><ellipse class="cls-2" cx="768.55" cy="524.16" rx="101.26" ry="179.5" transform="translate(-529.3 -12.44) rotate(-11.22)"></ellipse><ellipse class="cls-2" cx="885.83" cy="527.37" rx="179.5" ry="101.26" transform="translate(-245.82 1121.65) rotate(-78.78)"></ellipse><ellipse cx="776" cy="563.5" rx="21" ry="57.5" transform="translate(-514.37 -55.68) rotate(-8.19)"></ellipse><ellipse cx="870" cy="561.5" rx="57.5" ry="21" transform="translate(-292.05 1133.62) rotate(-78.78)"></ellipse><path class="cls-2" d="M757.5,635.5c50.55-23.89,94.53-21.1,134,0" transform="translate(-442 -172)"></path><path d="M757.5,635.5a141.85,141.85,0,0,1,32.09-14.26,128,128,0,0,1,35-5.55,117.25,117.25,0,0,1,35.15,4.81,114.4,114.4,0,0,1,31.78,15,199.57,199.57,0,0,0-33-10.43,149.91,149.91,0,0,0-33.88-3.38,168.23,168.23,0,0,0-33.88,4.1A301.82,301.82,0,0,0,757.5,635.5Z" transform="translate(-442 -172)"></path><ellipse cx="385.5" cy="488.5" rx="58.5" ry="25.5"></ellipse><path d="M689,726.5c22.84,10,46.24,18.49,70.27,24.25a321.8,321.8,0,0,0,36.38,6.57,285.25,285.25,0,0,0,36.83,2.22,288.9,288.9,0,0,0,36.82-2.3q9.16-1.12,18.27-2.79c6.06-1.14,12.1-2.4,18.11-3.82,24-5.78,47.44-14.19,70.32-24.13a300.66,300.66,0,0,1-68.94,29.41,269.19,269.19,0,0,1-149.17.11A296.67,296.67,0,0,1,689,726.5Z" transform="translate(-442 -172)"></path><path d="M743.5,749.5s33,73,89,73,87.14-73,87.14-73S843.5,782.5,743.5,749.5Z" transform="translate(-442 -172)"></path><line x1="522.5" y1="537.5" x2="543.5" y2="569.5"></line><path d="M964.79,709.31l2.77,3.9,2.68,4,5.34,7.94,5.16,8.06,2.57,4,2.48,4.1-.58.38a27,27,0,0,1-9.16-5.43,36,36,0,0,1-6.32-7.3,36.44,36.44,0,0,1-4.17-8.71,27.43,27.43,0,0,1-1.35-10.56Z" transform="translate(-442 -172)"></path><line x1="257.95" y1="538.3" x2="236.95" y2="570.3"></line><path d="M700.24,710.49a27.27,27.27,0,0,1-1.34,10.57,35.62,35.62,0,0,1-4.19,8.69,36,36,0,0,1-6.32,7.3,27.38,27.38,0,0,1-9.15,5.44l-.59-.38,2.49-4.1,2.57-4,5.15-8.07,5.35-7.93,2.68-4,2.76-3.9Z" transform="translate(-442 -172)"></path><path class="cls-3" d="M793,799s8,18,39,17,38-17,38-17-31-10-45,2C825,801,813,787,793,799Z" transform="translate(-442 -172)"></path></svg> 